<?xml version="1.0" encoding="UTF-8" standalone="no"?>
<!DOCTYPE svg PUBLIC "-//W3C//DTD SVG 1.1//EN"
 "http://www.w3.org/Graphics/SVG/1.1/DTD/svg11.dtd">
<!-- Generated by graphviz version 8.1.0 (0)
 -->
<!-- Title: snakemake_dag Pages: 1 -->
<svg width="404pt" height="332pt"
 viewBox="0.00 0.00 403.88 332.00" xmlns="http://www.w3.org/2000/svg" xmlns:xlink="http://www.w3.org/1999/xlink">
<g id="graph0" class="graph" transform="scale(1 1) rotate(0) translate(4 328)">
<title>snakemake_dag</title>
<polygon fill="white" stroke="none" points="-4,4 -4,-328 399.88,-328 399.88,4 -4,4"/>
<!-- 0 -->
<g id="node1" class="node">
<title>0</title>
<path fill="none" stroke="#56d88a" stroke-width="2" stroke-dasharray="5,2" d="M193.75,-36C193.75,-36 163.75,-36 163.75,-36 157.75,-36 151.75,-30 151.75,-24 151.75,-24 151.75,-12 151.75,-12 151.75,-6 157.75,0 163.75,0 163.75,0 193.75,0 193.75,0 199.75,0 205.75,-6 205.75,-12 205.75,-12 205.75,-24 205.75,-24 205.75,-30 199.75,-36 193.75,-36"/>
<text text-anchor="middle" x="178.75" y="-14.12" font-family="sans" font-size="10.00">all</text>
</g>
<!-- 1 -->
<g id="node2" class="node">
<title>1</title>
<path fill="none" stroke="#d85656" stroke-width="2" stroke-dasharray="5,2" d="M202.12,-108C202.12,-108 155.38,-108 155.38,-108 149.38,-108 143.38,-102 143.38,-96 143.38,-96 143.38,-84 143.38,-84 143.38,-78 149.38,-72 155.38,-72 155.38,-72 202.12,-72 202.12,-72 208.12,-72 214.12,-78 214.12,-84 214.12,-84 214.12,-96 214.12,-96 214.12,-102 208.12,-108 202.12,-108"/>
<text text-anchor="middle" x="178.75" y="-86.12" font-family="sans" font-size="10.00">bcftools_call</text>
</g>
<!-- 1&#45;&gt;0 -->
<g id="edge1" class="edge">
<title>1&#45;&gt;0</title>
<path fill="none" stroke="grey" stroke-width="2" d="M178.75,-71.34C178.75,-64.75 178.75,-57.08 178.75,-49.67"/>
<polygon fill="grey" stroke="grey" stroke-width="2" points="182.25,-49.9 178.75,-39.9 175.25,-49.9 182.25,-49.9"/>
</g>
<!-- 2 -->
<g id="node3" class="node">
<title>2</title>
<path fill="none" stroke="#88d856" stroke-width="2" stroke-dasharray="5,2" d="M65.5,-252C65.5,-252 12,-252 12,-252 6,-252 0,-246 0,-240 0,-240 0,-228 0,-228 0,-222 6,-216 12,-216 12,-216 65.5,-216 65.5,-216 71.5,-216 77.5,-222 77.5,-228 77.5,-228 77.5,-240 77.5,-240 77.5,-246 71.5,-252 65.5,-252"/>
<text text-anchor="middle" x="38.75" y="-230.12" font-family="sans" font-size="10.00">samtools_sort</text>
</g>
<!-- 2&#45;&gt;1 -->
<g id="edge2" class="edge">
<title>2&#45;&gt;1</title>
<path fill="none" stroke="grey" stroke-width="2" d="M28.4,-215.24C18.67,-195.94 7.66,-165.06 22.75,-144 46.93,-110.24 93.85,-97.73 129.95,-93.22"/>
<polygon fill="grey" stroke="grey" stroke-width="2" points="130.11,-96.41 139.7,-91.9 129.39,-89.45 130.11,-96.41"/>
</g>
<!-- 8 -->
<g id="node9" class="node">
<title>8</title>
<path fill="none" stroke="#d8bc56" stroke-width="2" stroke-dasharray="5,2" d="M103.88,-180C103.88,-180 43.62,-180 43.62,-180 37.62,-180 31.62,-174 31.62,-168 31.62,-168 31.62,-156 31.62,-156 31.62,-150 37.62,-144 43.62,-144 43.62,-144 103.88,-144 103.88,-144 109.88,-144 115.88,-150 115.88,-156 115.88,-156 115.88,-168 115.88,-168 115.88,-174 109.88,-180 103.88,-180"/>
<text text-anchor="middle" x="73.75" y="-158.12" font-family="sans" font-size="10.00">samtools_index</text>
</g>
<!-- 2&#45;&gt;8 -->
<g id="edge11" class="edge">
<title>2&#45;&gt;8</title>
<path fill="none" stroke="grey" stroke-width="2" d="M47.58,-215.34C51.08,-208.34 55.19,-200.12 59.11,-192.28"/>
<polygon fill="grey" stroke="grey" stroke-width="2" points="62.46,-193.41 63.8,-182.9 56.2,-190.28 62.46,-193.41"/>
</g>
<!-- 3 -->
<g id="node4" class="node">
<title>3</title>
<path fill="none" stroke="#56c1d8" stroke-width="2" stroke-dasharray="5,2" d="M56.5,-324C56.5,-324 21,-324 21,-324 15,-324 9,-318 9,-312 9,-312 9,-300 9,-300 9,-294 15,-288 21,-288 21,-288 56.5,-288 56.5,-288 62.5,-288 68.5,-294 68.5,-300 68.5,-300 68.5,-312 68.5,-312 68.5,-318 62.5,-324 56.5,-324"/>
<text text-anchor="middle" x="38.75" y="-307.75" font-family="sans" font-size="10.00">bwa_map</text>
<text text-anchor="middle" x="38.75" y="-296.5" font-family="sans" font-size="10.00">sample: A</text>
</g>
<!-- 3&#45;&gt;2 -->
<g id="edge8" class="edge">
<title>3&#45;&gt;2</title>
<path fill="none" stroke="grey" stroke-width="2" d="M38.75,-287.34C38.75,-280.75 38.75,-273.08 38.75,-265.67"/>
<polygon fill="grey" stroke="grey" stroke-width="2" points="42.25,-265.9 38.75,-255.9 35.25,-265.9 42.25,-265.9"/>
</g>
<!-- 4 -->
<g id="node5" class="node">
<title>4</title>
<path fill="none" stroke="#88d856" stroke-width="2" stroke-dasharray="5,2" d="M222.5,-252C222.5,-252 169,-252 169,-252 163,-252 157,-246 157,-240 157,-240 157,-228 157,-228 157,-222 163,-216 169,-216 169,-216 222.5,-216 222.5,-216 228.5,-216 234.5,-222 234.5,-228 234.5,-228 234.5,-240 234.5,-240 234.5,-246 228.5,-252 222.5,-252"/>
<text text-anchor="middle" x="195.75" y="-230.12" font-family="sans" font-size="10.00">samtools_sort</text>
</g>
<!-- 4&#45;&gt;1 -->
<g id="edge3" class="edge">
<title>4&#45;&gt;1</title>
<path fill="none" stroke="grey" stroke-width="2" d="M181.08,-215.09C174.05,-205.35 166.38,-192.71 162.75,-180 157.25,-160.75 161.2,-138.6 166.54,-121.21"/>
<polygon fill="grey" stroke="grey" stroke-width="2" points="170.82,-121.57 170.77,-110.97 164.2,-119.28 170.82,-121.57"/>
</g>
<!-- 9 -->
<g id="node10" class="node">
<title>9</title>
<path fill="none" stroke="#d8bc56" stroke-width="2" stroke-dasharray="5,2" d="M243.88,-180C243.88,-180 183.62,-180 183.62,-180 177.62,-180 171.62,-174 171.62,-168 171.62,-168 171.62,-156 171.62,-156 171.62,-150 177.62,-144 183.62,-144 183.62,-144 243.88,-144 243.88,-144 249.88,-144 255.88,-150 255.88,-156 255.88,-156 255.88,-168 255.88,-168 255.88,-174 249.88,-180 243.88,-180"/>
<text text-anchor="middle" x="213.75" y="-158.12" font-family="sans" font-size="10.00">samtools_index</text>
</g>
<!-- 4&#45;&gt;9 -->
<g id="edge12" class="edge">
<title>4&#45;&gt;9</title>
<path fill="none" stroke="grey" stroke-width="2" d="M200.29,-215.34C202.01,-208.67 204.01,-200.89 205.94,-193.39"/>
<polygon fill="grey" stroke="grey" stroke-width="2" points="210.05,-193.46 209.15,-182.9 203.27,-191.72 210.05,-193.46"/>
</g>
<!-- 5 -->
<g id="node6" class="node">
<title>5</title>
<path fill="none" stroke="#56c1d8" stroke-width="2" stroke-dasharray="5,2" d="M213.88,-324C213.88,-324 177.62,-324 177.62,-324 171.62,-324 165.62,-318 165.62,-312 165.62,-312 165.62,-300 165.62,-300 165.62,-294 171.62,-288 177.62,-288 177.62,-288 213.88,-288 213.88,-288 219.88,-288 225.88,-294 225.88,-300 225.88,-300 225.88,-312 225.88,-312 225.88,-318 219.88,-324 213.88,-324"/>
<text text-anchor="middle" x="195.75" y="-307.75" font-family="sans" font-size="10.00">bwa_map</text>
<text text-anchor="middle" x="195.75" y="-296.5" font-family="sans" font-size="10.00">sample: B</text>
</g>
<!-- 5&#45;&gt;4 -->
<g id="edge9" class="edge">
<title>5&#45;&gt;4</title>
<path fill="none" stroke="grey" stroke-width="2" d="M195.75,-287.34C195.75,-280.75 195.75,-273.08 195.75,-265.67"/>
<polygon fill="grey" stroke="grey" stroke-width="2" points="199.25,-265.9 195.75,-255.9 192.25,-265.9 199.25,-265.9"/>
</g>
<!-- 6 -->
<g id="node7" class="node">
<title>6</title>
<path fill="none" stroke="#88d856" stroke-width="2" stroke-dasharray="5,2" d="M327.5,-252C327.5,-252 274,-252 274,-252 268,-252 262,-246 262,-240 262,-240 262,-228 262,-228 262,-222 268,-216 274,-216 274,-216 327.5,-216 327.5,-216 333.5,-216 339.5,-222 339.5,-228 339.5,-228 339.5,-240 339.5,-240 339.5,-246 333.5,-252 327.5,-252"/>
<text text-anchor="middle" x="300.75" y="-230.12" font-family="sans" font-size="10.00">samtools_sort</text>
</g>
<!-- 6&#45;&gt;1 -->
<g id="edge4" class="edge">
<title>6&#45;&gt;1</title>
<path fill="none" stroke="grey" stroke-width="2" d="M297.06,-215.22C292.32,-195.91 282.5,-165.01 264.75,-144 254.12,-131.42 239.72,-120.94 225.74,-112.71"/>
<polygon fill="grey" stroke="grey" stroke-width="2" points="227.15,-109.38 216.71,-107.59 223.76,-115.5 227.15,-109.38"/>
</g>
<!-- 10 -->
<g id="node11" class="node">
<title>10</title>
<path fill="none" stroke="#d8bc56" stroke-width="2" stroke-dasharray="5,2" d="M383.88,-180C383.88,-180 323.62,-180 323.62,-180 317.62,-180 311.62,-174 311.62,-168 311.62,-168 311.62,-156 311.62,-156 311.62,-150 317.62,-144 323.62,-144 323.62,-144 383.88,-144 383.88,-144 389.88,-144 395.88,-150 395.88,-156 395.88,-156 395.88,-168 395.88,-168 395.88,-174 389.88,-180 383.88,-180"/>
<text text-anchor="middle" x="353.75" y="-158.12" font-family="sans" font-size="10.00">samtools_index</text>
</g>
<!-- 6&#45;&gt;10 -->
<g id="edge13" class="edge">
<title>6&#45;&gt;10</title>
<path fill="none" stroke="grey" stroke-width="2" d="M314.12,-215.34C319.67,-208.01 326.24,-199.34 332.42,-191.18"/>
<polygon fill="grey" stroke="grey" stroke-width="2" points="335.95,-192.99 339.2,-182.9 330.37,-188.76 335.95,-192.99"/>
</g>
<!-- 7 -->
<g id="node8" class="node">
<title>7</title>
<path fill="none" stroke="#56c1d8" stroke-width="2" stroke-dasharray="5,2" d="M319.25,-324C319.25,-324 282.25,-324 282.25,-324 276.25,-324 270.25,-318 270.25,-312 270.25,-312 270.25,-300 270.25,-300 270.25,-294 276.25,-288 282.25,-288 282.25,-288 319.25,-288 319.25,-288 325.25,-288 331.25,-294 331.25,-300 331.25,-300 331.25,-312 331.25,-312 331.25,-318 325.25,-324 319.25,-324"/>
<text text-anchor="middle" x="300.75" y="-307.75" font-family="sans" font-size="10.00">bwa_map</text>
<text text-anchor="middle" x="300.75" y="-296.5" font-family="sans" font-size="10.00">sample: C</text>
</g>
<!-- 7&#45;&gt;6 -->
<g id="edge10" class="edge">
<title>7&#45;&gt;6</title>
<path fill="none" stroke="grey" stroke-width="2" d="M300.75,-287.34C300.75,-280.75 300.75,-273.08 300.75,-265.67"/>
<polygon fill="grey" stroke="grey" stroke-width="2" points="304.25,-265.9 300.75,-255.9 297.25,-265.9 304.25,-265.9"/>
</g>
<!-- 8&#45;&gt;1 -->
<g id="edge5" class="edge">
<title>8&#45;&gt;1</title>
<path fill="none" stroke="grey" stroke-width="2" d="M100.52,-143.15C112.98,-134.84 128.02,-124.82 141.57,-115.79"/>
<polygon fill="grey" stroke="grey" stroke-width="2" points="143.65,-118.27 150.03,-109.81 139.77,-112.45 143.65,-118.27"/>
</g>
<!-- 9&#45;&gt;1 -->
<g id="edge6" class="edge">
<title>9&#45;&gt;1</title>
<path fill="none" stroke="grey" stroke-width="2" d="M204.92,-143.34C201.42,-136.34 197.31,-128.12 193.39,-120.28"/>
<polygon fill="grey" stroke="grey" stroke-width="2" points="196.3,-118.28 188.7,-110.9 190.04,-121.41 196.3,-118.28"/>
</g>
<!-- 10&#45;&gt;1 -->
<g id="edge7" class="edge">
<title>10&#45;&gt;1</title>
<path fill="none" stroke="grey" stroke-width="2" d="M310.94,-143.88C285.52,-133.71 253.22,-120.79 226.91,-110.27"/>
<polygon fill="grey" stroke="grey" stroke-width="2" points="227.5,-106.93 216.92,-106.47 224.9,-113.43 227.5,-106.93"/>
</g>
</g>
</svg>
